<svg xmlns="http://www.w3.org/2000/svg" viewBox="0 0 256 256" role="img" aria-label="Noema icon">
  <defs>
    <linearGradient id="bg" x1="0%" y1="0%" x2="100%" y2="100%">
      <stop offset="0%" stop-color="#fbf7fb" />
      <stop offset="60%" stop-color="#f3f8fe" />
      <stop offset="100%" stop-color="#eef6f4" />
    </linearGradient>
    <radialGradient id="core" cx="50%" cy="50%" r="50%">
      <stop offset="0%" stop-color="#fffbe8" />
      <stop offset="28%" stop-color="#ffe08b" />
      <stop offset="70%" stop-color="#ffe08b" stop-opacity="0.12" />
      <stop offset="100%" stop-color="#ffe08b" stop-opacity="0" />
    </radialGradient>
    <radialGradient id="glowMint" cx="50%" cy="50%" r="60%">
      <stop offset="0%" stop-color="#c8f0d8" stop-opacity="0.85" />
      <stop offset="60%" stop-color="#c8f0d8" stop-opacity="0.12" />
      <stop offset="100%" stop-color="#c8f0d8" stop-opacity="0" />
    </radialGradient>
    <filter id="glow" x="-30%" y="-30%" width="160%" height="160%">
      <feGaussianBlur stdDeviation="4.5" result="blur" />
      <feMerge>
        <feMergeNode in="blur" />
        <feMergeNode in="SourceGraphic" />
      </feMerge>
    </filter>
  </defs>

  <rect x="14" y="14" width="228" height="228" rx="56" fill="url(#bg)" />

  <path
    d="M72 70c18-12 39-13 58-5 10-11 26-16 39-11 11 5 18 14 18 26 15 1 27 12 27 26 0 10-4 18-12 24 5 9 5 20-2 29-8 10-21 14-33 12-5 14-18 22-33 22-10 0-18-3-25-8-5 8-10 16-10 27 0 4 1 8 2 13-14-5-22-15-22-28 0-11 5-20 12-28-7-6-11-14-11-24-13-4-22-15-22-28 0-13 8-24 21-29-1-16 7-30 23-38Z"
    fill="#dff1f7"
    fill-opacity="0.42"
  />

  <ellipse cx="133" cy="126" rx="75" ry="46" fill="url(#core)" filter="url(#glow)" />
  <ellipse cx="188" cy="188" rx="34" ry="24" fill="url(#glowMint)" />

  <g fill="none" stroke-linecap="round" stroke-linejoin="round">
    <path
      d="M184 108c-14-22-46-33-75-25-29 8-48 30-45 53 4 28 37 48 76 45 31-3 55-22 59-44 2-13-3-26-13-35-14-13-38-18-58-13-17 4-29 16-31 29-3 18 10 33 31 37 18 3 37-5 45-18 6-10 4-22-5-30-8-6-19-9-29-7-9 2-16 8-17 15-2 9 5 17 15 19 10 2 20-2 24-8"
      stroke="#7fc9da"
      stroke-width="4"
    />
    <path
      d="M199 104c-20-21-53-30-85-23-34 8-57 34-54 61 3 35 39 61 84 58"
      stroke="#a9dde6"
      stroke-width="3"
      stroke-opacity="0.85"
    />
    <path
      d="M73 142c11 19 32 31 56 34 29 4 57-6 73-27"
      stroke="#93d7c6"
      stroke-width="3"
      stroke-opacity="0.8"
    />
  </g>

  <g fill="#fff">
    <circle cx="72" cy="122" r="4.5" />
    <circle cx="91" cy="91" r="3.5" />
    <circle cx="115" cy="78" r="3" />
    <circle cx="149" cy="82" r="3.5" />
    <circle cx="184" cy="102" r="4.5" />
    <circle cx="195" cy="137" r="3.5" />
    <circle cx="161" cy="169" r="4.5" />
    <circle cx="124" cy="181" r="3.5" />
    <circle cx="90" cy="169" r="4" />
    <circle cx="62" cy="145" r="3" />
  </g>

  <g stroke="#d7f0f3" stroke-opacity="0.8" stroke-width="1.5">
    <path d="M72 122 91 91 115 78 149 82 184 102 195 137 161 169 124 181 90 169 62 145Z" fill="none" />
    <path d="M91 91 161 169" fill="none" />
    <path d="M149 82 90 169" fill="none" />
    <path d="M72 122 195 137" fill="none" />
  </g>

  <circle cx="130" cy="126" r="8.5" fill="#fff9c9" filter="url(#glow)" />

  <g transform="translate(174 166)">
    <path d="M10 34c0-9 0-16 2-22" fill="none" stroke="#7db756" stroke-width="4" stroke-linecap="round" />
    <path d="M11 14c-10-8-17-7-23-4 5 9 11 13 21 12" fill="#aee277" stroke="#8ac55d" stroke-width="2" stroke-linejoin="round" />
    <path d="M13 12c8-9 15-10 22-8-2 10-7 15-18 16" fill="#bce985" stroke="#8ac55d" stroke-width="2" stroke-linejoin="round" />
  </g>
</svg>
